<svg width="932" height="353" viewBox="0 0 932 353" fill="none" xmlns="http://www.w3.org/2000/svg">
<path d="M932 532.464C932 716.276 811.455 794.451 811.455 794.451L758.43 839.27L680.818 868.269C680.818 868.269 125.764 1030.76 86.5116 779.773C47.2589 528.785 -66.8186 200.302 54.0053 93.8071C174.829 -12.6876 280.934 34.1672 344.719 73.4866C408.504 112.806 504.796 141.162 559.381 73.4866C613.966 5.81144 726.204 -32.1867 790.602 35.8099C855.001 103.807 734.845 217.659 833.869 292.476C932.013 366.629 932.008 431.339 932 529.809L932 532.464Z" fill="url(#paint0_linear_700_9858)"/>
<defs>
<linearGradient id="paint0_linear_700_9858" x1="-0.140405" y1="349.164" x2="856.61" y2="-134.146" gradientUnits="userSpaceOnUse">
<stop stop-color="#E5F5F4"/>
<stop offset="1" stop-color="#F4FBFA"/>
</linearGradient>
</defs>
</svg>
