<svg width="782" height="251" viewBox="0 0 782 251" fill="none" xmlns="http://www.w3.org/2000/svg">
<path d="M273.697 226.217C96.1398 178.64 46.0593 63.4825 46.0593 63.4825L13.9538 10.1267L2.318 -58.4951C2.318 -58.4951 -37.5294 -537.634 213.2 -503.581C463.93 -469.527 805.307 -474.336 882.684 -351.628C960.062 -228.92 892.413 -157.495 840.973 -117.444C789.533 -77.3932 741.825 -8.90674 795.68 51.5932C849.535 112.093 862.558 210.311 783.287 243.422C704.016 276.534 619.391 152.447 526.225 211.059C433.887 269.15 371.38 252.397 276.262 226.904L273.697 226.217Z" fill="url(#paint0_linear_700_9857)"/>
<defs>
<linearGradient id="paint0_linear_700_9857" x1="984.348" y1="-122" x2="-100.652" y2="364" gradientUnits="userSpaceOnUse">
<stop stop-color="#EBFBFF"/>
<stop offset="1" stop-color="#F4FBFA"/>
</linearGradient>
</defs>
</svg>
