<svg width="366" height="427" viewBox="0 0 366 427" fill="none" xmlns="http://www.w3.org/2000/svg">
<path d="M-167.445 426.8C-351.266 426.8 -429.445 328.528 -429.445 328.528L-474.266 285.299L-503.266 222.027C-503.266 222.027 -665.766 -230.473 -414.766 -262.473C-163.766 -294.473 164.734 -387.473 271.234 -288.973C377.734 -190.473 330.877 -103.973 291.555 -51.9729C252.234 0.026886 223.877 78.5276 291.555 123.027C359.234 167.527 397.234 259.027 329.234 311.527C261.234 364.027 147.376 266.072 72.5551 346.8C-1.6015 426.81 -66.3148 426.806 -164.789 426.8L-167.445 426.8Z" fill="url(#paint0_linear_700_9855)"/>
<defs>
<linearGradient id="paint0_linear_700_9855" x1="365.234" y1="426.527" x2="-554.766" y2="-333.473" gradientUnits="userSpaceOnUse">
<stop stop-color="#EFFAFC"/>
<stop offset="1" stop-color="#E5F5F4"/>
</linearGradient>
</defs>
</svg>
